# 3ds Max Wavefront OBJ Exporter v0.97b - (c)2007 guruware
# File Created: 23.04.2015 10:03:37

mtllib Pillar.mtl

#
# object Cylinder001
#

v  101909.7031250000 0.0087894034 -45428.1718750000
v  101909.7031250000 0.4454587102 -45428.1718750000
v  101909.5468750000 0.0087894034 -45428.3593750000
v  101909.5468750000 0.4454587102 -45428.3593750000
v  101909.2968750000 0.0087894034 -45428.3984375000
v  101909.2968750000 0.4454587102 -45428.3984375000
v  101909.0937500000 0.0087894034 -45428.2773437500
v  101909.0937500000 0.4454587102 -45428.2773437500
v  101909.0000000000 0.0087894034 -45428.0468750000
v  101909.0000000000 0.4454587102 -45428.0468750000
v  101909.0937500000 0.0087894034 -45427.8164062500
v  101909.0937500000 0.4454587102 -45427.8164062500
v  101909.2968750000 0.0087894034 -45427.6953125000
v  101909.2968750000 0.4454587102 -45427.6953125000
v  101909.5468750000 0.0087894034 -45427.7343750000
v  101909.5468750000 0.4454587102 -45427.7343750000
v  101909.7031250000 0.0087894034 -45427.9218750000
v  101909.7031250000 0.4454587102 -45427.9218750000
v  101909.6562500000 0.6365659237 -45428.2929687500
v  101909.6562500000 0.6365659833 -45428.2929687500
v  101909.7500000000 0.6365659833 -45428.0468750000
v  101909.4296875000 0.6365659833 -45428.4218750000
v  101909.1718750000 0.6365661025 -45428.3750000000
v  101909.1718750000 0.6365659833 -45428.3750000000
v  101909.0000000000 0.6365659833 -45428.1796875000
v  101909.0000000000 0.6365659833 -45427.9140625000
v  101909.1718750000 0.6365661025 -45427.7187500000
v  101909.1718750000 0.6365659833 -45427.7187500000
v  101909.4296875000 0.6365659833 -45427.6718750000
v  101909.6562500000 0.6365659237 -45427.8007812500
v  101909.6562500000 0.6365659833 -45427.8007812500
v  101909.6562500000 1.1196517944 -45428.2929687500
v  101909.7500000000 1.1196517944 -45428.0468750000
v  101909.4296875000 1.1196520329 -45428.4218750000
v  101909.1718750000 1.1196517944 -45428.3750000000
v  101909.0000000000 1.1196517944 -45428.1796875000
v  101909.0000000000 1.1196517944 -45427.9140625000
v  101909.1718750000 1.1196517944 -45427.7187500000
v  101909.4296875000 1.1196517944 -45427.6718750000
v  101909.6562500000 1.1196517944 -45427.8007812500
v  101909.6562500000 1.4443460703 -45428.2929687500
v  101909.7500000000 1.4443460703 -45428.0468750000
v  101909.4296875000 1.4443460703 -45428.4218750000
v  101909.1718750000 1.4443460703 -45428.3750000000
v  101909.0000000000 1.4443460703 -45428.1796875000
v  101909.0000000000 1.4443460703 -45427.9140625000
v  101909.1718750000 1.4443459511 -45427.7187500000
v  101909.4296875000 1.4443459511 -45427.6718750000
v  101909.6562500000 1.4443459511 -45427.8007812500
v  101909.6562500000 1.9052746296 -45428.2929687500
v  101909.7500000000 1.6825628281 -45428.0468750000
v  101909.4296875000 1.8143323660 -45428.4218750000
v  101909.1718750000 1.7335218191 -45428.3750000000
v  101909.0000000000 1.7968152761 -45428.1796875000
v  101909.0000000000 1.8836629391 -45427.9140625000
v  101909.1718750000 1.8143321276 -45427.7187500000
v  101909.4296875000 1.7473996878 -45427.6718750000
v  101909.6562500000 1.7400631905 -45427.8007812500
v  101909.7265625000 0.4454587102 -45428.3515625000
v  101909.7265625000 0.0087894034 -45428.3515625000
v  101909.8359375000 0.4454587102 -45428.0468750000
v  101909.8359375000 0.0087894034 -45428.0468750000
v  101909.4453125000 0.4454587102 -45428.5117187500
v  101909.4453125000 0.0087894034 -45428.5117187500
v  101909.1250000000 0.4454587102 -45428.4570312500
v  101909.1250000000 0.0087894034 -45428.4570312500
v  101908.9218750000 0.4454587102 -45428.2070312500
v  101908.9218750000 0.0087894034 -45428.2070312500
v  101908.9218750000 0.4454587102 -45427.8867187500
v  101908.9218750000 0.0087894034 -45427.8867187500
v  101909.1250000000 0.4454587102 -45427.6367187500
v  101909.1250000000 0.0087894034 -45427.6367187500
v  101909.4453125000 0.4454587102 -45427.5820312500
v  101909.4453125000 0.0087894034 -45427.5820312500
v  101909.7265625000 0.4454587102 -45427.7421875000
v  101909.7265625000 0.0087894034 -45427.7421875000
# 76 vertices

vn -1.0000000000 0.0000000000 -0.0000000000
vn -0.9956883192 -0.0927620009 -0.0000000000
vn -0.9691299200 -0.1889420897 -0.1583920568
vn 0.0000000000 0.0000000000 -1.0000000000
vn 0.0000000000 -0.1857044697 -0.9826056361
vn 0.1633180827 -0.0904770121 -0.9824159741
vn 0.0000000000 0.0700199157 -0.9975455999
vn -0.0558648594 0.0319590047 -0.9979267120
vn 1.0000000000 0.0000000000 -0.0000000000
vn -0.7660444379 -0.0002771639 -0.6427875757
vn -0.9999195337 0.0126855494 0.0000002489
vn -0.7660442591 -0.0002769196 0.6427877545
vn 0.0000000000 0.0000000000 1.0000000000
vn 0.0000000000 -0.0667561442 0.9977692962
vn -0.0556932613 -0.0300133061 0.9979967475
vn 0.4999924302 0.0054796454 0.8660124540
vn 0.9396606684 0.0082431948 0.3420086801
vn 0.7646593451 -0.0000000117 -0.6444347501
vn 0.7657822371 0.0022583294 -0.6430960298
vn 0.9999943972 0.0033509366 0.0000000374
vn 0.0000000000 -0.3212570846 -0.9469920397
vn 0.1730282456 0.0013633533 -0.9849159122
vn 0.4994363785 0.0000000000 0.8663505316
vn 0.9417001605 0.1701893061 -0.2902350724
vn -0.9396861196 0.0025222646 -0.3420287371
vn -0.9396860600 0.0025223792 0.3420288861
vn 0.4994354844 0.0000000000 -0.8663510680
vn 0.9417250156 0.1702918708 0.2900942862
vn 0.0000000000 -0.1152363867 0.9933381081
vn 0.1730283797 0.0013633438 0.9849159122
vn 0.7646375299 0.0000000000 0.6444605589
vn 0.7657945752 0.0022581876 0.6430813074
vn 0.7660444379 0.0000000384 -0.6427876353
vn 1.0000000000 0.0000000206 0.0000000606
vn 0.1736480892 0.0000000608 -0.9848077893
vn -0.4999999702 0.0000000245 -0.8660254478
vn -0.9396926761 -0.0000000580 -0.3420199156
vn -0.9396924973 -0.0000000073 0.3420205116
vn -0.4999999702 0.0000000252 0.8660254478
vn 0.1736480594 0.0000000262 0.9848077893
vn 0.7660444379 0.0000000015 0.6427876353
vn 0.7660444379 -0.0000000731 -0.6427876353
vn 1.0000000000 -0.0000000162 0.0000000404
vn 0.1736480892 -0.0000000638 -0.9848077893
vn -0.4999999404 -0.0000000400 -0.8660254478
vn -0.9396926761 -0.0000000527 -0.3420199156
vn -0.9396924376 0.0000000013 0.3420206010
vn -0.4999999404 0.0000000155 0.8660254478
vn 0.1736481041 -0.0000000153 0.9848077893
vn 0.7660444379 0.0000000005 0.6427876353
vn 0.7232554555 -0.0000000846 -0.6905805469
vn 0.9990416765 -0.0000000016 -0.0437692329
vn 0.2446228415 -0.0000001464 -0.9696183205
vn -0.4946551919 -0.0000001797 -0.8690893054
vn -0.9593449831 -0.0000001024 -0.2822360396
vn -0.9366670847 -0.0000000144 0.3502209485
vn -0.5500763059 0.0000001103 0.8351144195
vn 0.1438815892 0.0000000553 0.9895949364
vn 0.7463259101 -0.0000000042 0.6655806303
vn 0.0000000000 -1.0000000000 -0.0000000000
vn 0.0000000000 1.0000000000 -0.0000000000
vn 0.5349111557 0.7845294476 0.3136616349
vn 0.2408744991 0.9364030361 0.2552034557
vn -0.1242589429 0.9551346898 -0.2688446939
vn 0.0518104099 0.9914376140 0.1198628321
vn 0.1570441425 0.9739868045 0.1633612514
vn -0.2468300909 0.9523015618 -0.1794342548
vn 0.1437957734 0.9888346195 -0.0391014665
vn -0.2925541401 0.8729162216 -0.3904219866
vn -0.0182747021 0.9488217235 -0.3152830005
vn 0.9907724261 0.0000000000 0.1355357915
vn 0.6744254827 0.0000000000 -0.7383429408
vn 0.8435023427 0.0000000000 -0.5371254086
vn 0.0346692502 0.0000000000 -0.9993988276
vn 0.3120299876 0.0000000000 -0.9500722885
vn -0.6129246354 0.0000000000 -0.7901413441
vn -0.3780256808 0.0000000000 -0.9257951379
vn -0.9743275642 0.0000000000 -0.2251352072
vn -0.8839449883 0.0000000000 -0.4675907791
vn -0.8839442134 0.0000000000 0.4675924778
vn -0.9743275046 0.0000000000 0.2251355797
vn -0.3780242801 0.0000000000 0.9257956743
vn -0.6129243374 0.0000000000 0.7901415825
vn 0.3120311499 0.0000000000 0.9500718117
vn 0.0346683860 0.0000000000 0.9993988872
vn 0.8435024023 0.0000000000 0.5371253490
vn 0.6744253635 0.0000000000 0.7383431196
vn 0.9907725453 0.0000000000 -0.1355351955
vn 0.9419811964 0.3099453449 0.1288612336
vn 0.6415684223 0.3083237410 -0.7023719549
vn 0.8027508855 0.3070671260 -0.5111756921
vn 0.0329808183 0.3082702458 -0.9507269263
vn 0.2964757681 0.3117882907 -0.9027126431
vn -0.5844441056 0.3012872934 -0.7534261942
vn -0.3601990938 0.3034638166 -0.8821373582
vn -0.9305965900 0.2962296307 -0.2150304168
vn -0.8391802311 0.3141966164 -0.4439110458
vn -0.8391789198 0.3141982853 0.4439123273
vn -0.9305966496 0.2962289751 0.2150307745
vn -0.3601976335 0.3034652770 0.8821374774
vn -0.5844438672 0.3012868762 0.7534264922
vn 0.2964768410 0.3117889464 0.9027120471
vn 0.0329799913 0.3082706034 0.9507268071
vn 0.8027509451 0.3070671260 0.5111756921
vn 0.6415683031 0.3083238900 0.7023720741
vn 0.9419814348 0.3099450171 -0.1288606972
vn 0.0000000000 -0.9999999404 -0.0000000000
# 107 vertex normals

vt 0.0556311011 0.9906426668 0.0000000000
vt 0.0556311011 0.8297693729 0.0000000000
vt 0.0567568615 0.8298416138 0.0000000000
vt 0.0550861135 0.9889228344 0.0000000000
vt 0.9938871861 0.7106103301 0.0000000000
vt 0.8263643980 0.7106103301 0.0000000000
vt 0.9938871861 0.6179681420 0.0000000000
vt 0.8263643980 0.6179681420 0.0000000000
vt 0.7005145550 0.0784359351 0.0000000000
vt 0.5379651785 0.0784359574 0.0000000000
vt 0.7005145550 0.1643256098 0.0000000000
vt 0.5379651785 0.1643256396 0.0000000000
vt 0.7005145550 0.2502152026 0.0000000000
vt 0.5379651785 0.2502152324 0.0000000000
vt 0.5379651785 0.2563637495 0.0000000000
vt 0.7005145550 0.2563637495 0.0000000000
vt 0.2655530572 0.9269266129 0.0000000000
vt 0.4330757856 0.9269266129 0.0000000000
vt 0.2655530572 0.8342846036 0.0000000000
vt 0.4330757856 0.8342846036 0.0000000000
vt 0.4330757856 0.8235590458 0.0000000000
vt 0.2655530572 0.8235590458 0.0000000000
vt 0.1667945832 0.9915746450 0.0000000000
vt 0.1667945832 0.8307014704 0.0000000000
vt 0.1667945832 0.9915747643 0.0000000000
vt 0.0308592264 0.7602956891 0.0000000000
vt 0.1213406622 0.7602956891 0.0000000000
vt 0.1159669161 0.7595079541 0.0000000000
vt 0.7530485392 0.6640819311 0.0000000000
vt 0.7530485392 0.6667278409 0.0000000000
vt 0.7530485392 0.7535627484 0.0000000000
vt 0.7530485392 0.5679829121 0.0000000000
vt 0.4668258727 0.1126963124 0.0000000000
vt 0.4668258727 0.1156797707 0.0000000000
vt 0.4668258727 0.0411501192 0.0000000000
vt 0.4668258727 0.2221032828 0.0000000000
vt 0.4668258727 0.2129713297 0.0000000000
vt 0.4668258727 0.2875009179 0.0000000000
vt 0.5063917041 0.8579361439 0.0000000000
vt 0.5063917041 0.8781670332 0.0000000000
vt 0.5063917041 0.9769120216 0.0000000000
vt 0.5063917041 0.7913322449 0.0000000000
vt 0.2118220925 0.7602956891 0.0000000000
vt 0.0308592636 0.5823221803 0.0000000000
vt 0.1213406920 0.5823221803 0.0000000000
vt 0.5677186847 0.6667278409 0.0000000000
vt 0.5677187443 0.7535627484 0.0000000000
vt 0.5677187443 0.5679829121 0.0000000000
vt 0.2869980037 0.1156798005 0.0000000000
vt 0.2869980037 0.0411501490 0.0000000000
vt 0.2869980037 0.2129713595 0.0000000000
vt 0.2869980037 0.2875009179 0.0000000000
vt 0.6917214990 0.8781670332 0.0000000000
vt 0.6917214990 0.9769120216 0.0000000000
vt 0.6917214990 0.7913322449 0.0000000000
vt 0.2118221372 0.5823221803 0.0000000000
vt 0.0308592636 0.4627016783 0.0000000000
vt 0.1213406920 0.4627016783 0.0000000000
vt 0.4431538880 0.6667278409 0.0000000000
vt 0.4431538880 0.7535627484 0.0000000000
vt 0.4431538880 0.5679829121 0.0000000000
vt 0.1661310941 0.1156798154 0.0000000000
vt 0.1661310941 0.0411501490 0.0000000000
vt 0.1661311537 0.2129713893 0.0000000000
vt 0.1661312133 0.2875009775 0.0000000000
vt 0.8162862659 0.8781670332 0.0000000000
vt 0.8162862659 0.9769120216 0.0000000000
vt 0.8162862659 0.7913322449 0.0000000000
vt 0.2118221372 0.4627016783 0.0000000000
vt 0.0308592636 0.2928909659 0.0000000000
vt 0.1213406920 0.3749402761 0.0000000000
vt 0.3012133539 0.6667278409 0.0000000000
vt 0.2663243711 0.7535627484 0.0000000000
vt 0.3322152793 0.5679829121 0.0000000000
vt 0.0349251479 0.1156798303 0.0000000000
vt 0.0584859997 0.0411501750 0.0000000000
vt 0.0025962656 0.2129714042 0.0000000000
vt 0.0284045339 0.2875009775 0.0000000000
vt 0.9325491190 0.8781670332 0.0000000000
vt 0.9582269192 0.9769120216 0.0000000000
vt 0.9297345877 0.7913322449 0.0000000000
vt 0.2118221372 0.3537566066 0.0000000000
vt 0.9348971844 0.3214755058 0.0000000000
vt 0.9496421814 0.4049400687 0.0000000000
vt 0.9069984555 0.4789995253 0.0000000000
vt 0.8272496462 0.5088784099 0.0000000000
vt 0.7475010157 0.4789995849 0.0000000000
vt 0.7048571706 0.4049402773 0.0000000000
vt 0.7196021676 0.3214755058 0.0000000000
vt 0.7846058607 0.2668230832 0.0000000000
vt 0.8698934913 0.2668231428 0.0000000000
vt 0.8275467157 0.2508721054 0.0000000000
vt 0.6974915266 0.3600014150 0.0000000000
vt 0.7426592112 0.2817686796 0.0000000000
vt 0.9124342203 0.2817686200 0.0000000000
vt 0.7131779790 0.4489644766 0.0000000000
vt 0.9576019645 0.3600014150 0.0000000000
vt 0.7823790312 0.5070309043 0.0000000000
vt 0.9419153929 0.4489644766 0.0000000000
vt 0.8727144599 0.5070309639 0.0000000000
vt 0.0089380387 0.8307014704 0.0000000000
vt 0.0089380387 0.9915746450 0.0000000000
vt 0.1340555847 0.8291262388 0.0000000000
vt 0.1340555847 0.9899992943 0.0000000000
vt 0.8263643980 0.6473681927 0.0000000000
vt 0.9938871861 0.6473681927 0.0000000000
vt 0.8263643980 0.7808089256 0.0000000000
vt 0.9938871861 0.7808089256 0.0000000000
vt 0.8263643980 0.5517295599 0.0000000000
vt 0.9938871861 0.5517295599 0.0000000000
vt 0.5379651785 0.1394176036 0.0000000000
vt 0.7005145550 0.1394175738 0.0000000000
vt 0.5379651785 0.0113996221 0.0000000000
vt 0.7005145550 0.0113995941 0.0000000000
vt 0.5379651785 0.1986850500 0.0000000000
vt 0.7005145550 0.1986850202 0.0000000000
vt 0.5379651785 0.3172514439 0.0000000000
vt 0.7005145550 0.3172514439 0.0000000000
vt 0.4330757856 0.8718914986 0.0000000000
vt 0.2655530572 0.8718914986 0.0000000000
vt 0.4330757856 0.9931652546 0.0000000000
vt 0.2655530572 0.9931652546 0.0000000000
vt 0.4330757856 0.7640860081 0.0000000000
vt 0.2655530572 0.7640860081 0.0000000000
vt 0.2337433845 0.8307014704 0.0000000000
vt 0.2337433845 0.9915747643 0.0000000000
vt 0.9881047010 0.3553569615 0.0000000000
vt 0.9692417383 0.4646170437 0.0000000000
vt 0.8827996850 0.5382632017 0.0000000000
vt 0.7716999054 0.5382633805 0.0000000000
vt 0.6852576137 0.4646172225 0.0000000000
vt 0.6663946509 0.3553569615 0.0000000000
vt 0.7217961550 0.2582308352 0.0000000000
vt 0.8272496462 0.2201378047 0.0000000000
vt 0.9327031970 0.2582308948 0.0000000000
# 135 texture coords

g Cylinder001
usemtl _torch_with_pole_Torch01___Default
s 8
f 1/1/1 2/2/2 2/3/3 
f 2/3/3 1/4/1 1/1/1 
f 3/5/4 4/6/5 4/6/6 
f 4/6/6 3/5/4 3/5/4 
f 5/7/4 6/8/7 6/8/8 
f 6/8/8 5/7/4 5/7/4 
f 7/9/9 8/10/9 8/10/10 
f 8/10/10 7/9/9 7/9/9 
f 9/11/9 10/12/9 10/12/11 
f 10/12/11 9/11/9 9/11/9 
f 11/13/9 12/14/9 12/15/12 
f 12/15/12 11/16/9 11/13/9 
f 13/17/13 14/18/14 14/18/15 
f 14/18/15 13/17/13 13/17/13 
f 15/19/9 16/20/9 16/21/16 
f 16/21/16 15/22/9 15/19/9 
f 17/23/9 18/24/9 18/24/17 
f 18/24/17 17/25/9 17/23/9 
f 2/3/3 2/2/2 19/26/18 
f 2/3/3 19/26/18 20/26/19 
f 2/3/3 20/26/19 21/27/20 
f 2/3/3 21/27/20 21/28/9 
f 4/6/6 4/6/5 22/29/21 
f 4/6/6 22/29/21 22/30/22 
f 4/6/6 22/30/22 20/31/19 
f 4/6/6 20/31/19 19/31/18 
f 6/8/8 6/8/7 23/32/23 
f 6/8/8 23/32/23 24/32/24 
f 6/8/8 24/32/24 22/30/22 
f 6/8/8 22/30/22 22/29/21 
f 8/10/10 8/10/9 25/33/9 
f 8/10/10 25/33/9 25/34/25 
f 8/10/10 25/34/25 24/35/24 
f 8/10/10 24/35/24 23/35/23 
f 10/12/11 10/12/9 26/36/9 
f 10/12/11 26/36/9 26/37/26 
f 10/12/11 26/37/26 25/34/25 
f 10/12/11 25/34/25 25/33/9 
f 12/15/12 12/14/9 27/38/27 
f 12/15/12 27/38/27 28/38/28 
f 12/15/12 28/38/28 26/37/26 
f 12/15/12 26/37/26 26/36/9 
f 14/18/15 14/18/14 29/39/29 
f 14/18/15 29/39/29 29/40/30 
f 14/18/15 29/40/30 28/41/28 
f 14/18/15 28/41/28 27/41/27 
f 16/21/16 16/20/9 30/42/31 
f 16/21/16 30/42/31 31/42/32 
f 16/21/16 31/42/32 29/40/30 
f 16/21/16 29/40/30 29/39/29 
f 18/24/17 18/24/9 21/28/9 
f 18/24/17 21/28/9 21/27/20 
f 18/24/17 21/27/20 31/43/32 
f 18/24/17 31/43/32 30/43/31 
f 21/27/20 20/26/19 32/44/33 
f 32/44/33 33/45/34 21/27/20 
f 20/31/19 22/30/22 34/46/35 
f 34/46/35 32/47/33 20/31/19 
f 22/30/22 24/32/24 35/48/36 
f 35/48/36 34/46/35 22/30/22 
f 24/35/24 25/34/25 36/49/37 
f 36/49/37 35/50/36 24/35/24 
f 25/34/25 26/37/26 37/51/38 
f 37/51/38 36/49/37 25/34/25 
f 26/37/26 28/38/28 38/52/39 
f 38/52/39 37/51/38 26/37/26 
f 28/41/28 29/40/30 39/53/40 
f 39/53/40 38/54/39 28/41/28 
f 29/40/30 31/42/32 40/55/41 
f 40/55/41 39/53/40 29/40/30 
f 31/43/32 21/27/20 33/45/34 
f 33/45/34 40/56/41 31/43/32 
f 33/45/34 32/44/33 41/57/42 
f 41/57/42 42/58/43 33/45/34 
f 32/47/33 34/46/35 43/59/44 
f 43/59/44 41/60/42 32/47/33 
f 34/46/35 35/48/36 44/61/45 
f 44/61/45 43/59/44 34/46/35 
f 35/50/36 36/49/37 45/62/46 
f 45/62/46 44/63/45 35/50/36 
f 36/49/37 37/51/38 46/64/47 
f 46/64/47 45/62/46 36/49/37 
f 37/51/38 38/52/39 47/65/48 
f 47/65/48 46/64/47 37/51/38 
f 38/54/39 39/53/40 48/66/49 
f 48/66/49 47/67/48 38/54/39 
f 39/53/40 40/55/41 49/68/50 
f 49/68/50 48/66/49 39/53/40 
f 40/56/41 33/45/34 42/58/43 
f 42/58/43 49/69/50 40/56/41 
f 42/58/43 41/57/42 50/70/51 
f 50/70/51 51/71/52 42/58/43 
f 41/60/42 43/59/44 52/72/53 
f 52/72/53 50/73/51 41/60/42 
f 43/59/44 44/61/45 53/74/54 
f 53/74/54 52/72/53 43/59/44 
f 44/63/45 45/62/46 54/75/55 
f 54/75/55 53/76/54 44/63/45 
f 45/62/46 46/64/47 55/77/56 
f 55/77/56 54/75/55 45/62/46 
f 46/64/47 47/65/48 56/78/57 
f 56/78/57 55/77/56 46/64/47 
f 47/67/48 48/66/49 57/79/58 
f 57/79/58 56/80/57 47/67/48 
f 48/66/49 49/68/50 58/81/59 
f 58/81/59 57/79/58 48/66/49 
f 49/69/50 42/58/43 51/71/52 
f 51/71/52 58/82/59 49/69/50 
s 1
f 15/83/60 15/83/9 13/84/60 
f 13/84/60 13/84/60 11/85/60 
f 15/83/60 13/84/60 11/85/60 
f 11/85/60 11/85/9 9/86/60 
f 15/83/60 11/85/60 9/86/60 
f 9/86/60 9/86/9 7/87/60 
f 15/83/60 9/86/60 7/87/60 
f 7/87/60 7/87/9 5/88/60 
f 15/83/60 7/87/60 5/88/60 
f 5/88/60 5/88/60 3/89/60 
f 15/83/60 5/88/60 3/89/60 
f 3/89/60 3/89/60 1/90/61 
f 15/83/60 3/89/60 1/90/61 
f 1/90/61 1/90/9 17/91/60 
f 15/83/60 1/90/61 17/91/60 
f 15/83/60 17/91/60 17/91/9 
f 51/92/62 57/93/63 58/94/64 
f 50/95/65 56/96/66 57/93/63 
f 57/93/63 51/92/62 50/95/65 
f 52/97/67 55/98/68 56/96/66 
f 56/96/66 50/95/65 52/97/67 
f 53/99/69 54/100/70 55/98/68 
f 55/98/68 52/97/67 53/99/69 
s off
f 59/101/71 2/2/71 1/1/71 
f 1/1/71 60/102/71 59/101/71 
f 2/3/72 61/103/72 62/104/72 
f 62/104/72 1/4/72 2/3/72 
f 63/105/73 4/6/73 3/5/73 
f 3/5/73 64/106/73 63/105/73 
f 4/6/74 59/107/74 60/108/74 
f 60/108/74 3/5/74 4/6/74 
f 65/109/75 6/8/75 5/7/75 
f 5/7/75 66/110/75 65/109/75 
f 6/8/76 63/105/76 64/106/76 
f 64/106/76 5/7/76 6/8/76 
f 67/111/77 8/10/77 7/9/77 
f 7/9/77 68/112/77 67/111/77 
f 8/10/78 65/113/78 66/114/78 
f 66/114/78 7/9/78 8/10/78 
f 69/115/79 10/12/79 9/11/79 
f 9/11/79 70/116/79 69/115/79 
f 10/12/80 67/111/80 68/112/80 
f 68/112/80 9/11/80 10/12/80 
f 71/117/81 12/14/81 11/13/81 
f 11/13/81 72/118/81 71/117/81 
f 12/15/82 69/115/82 70/116/82 
f 70/116/82 11/16/82 12/15/82 
f 73/119/83 14/18/83 13/17/83 
f 13/17/83 74/120/83 73/119/83 
f 14/18/84 71/121/84 72/122/84 
f 72/122/84 13/17/84 14/18/84 
f 75/123/85 16/20/85 15/19/85 
f 15/19/85 76/124/85 75/123/85 
f 16/21/86 73/119/86 74/120/86 
f 74/120/86 15/22/86 16/21/86 
f 61/103/87 18/24/87 17/23/87 
f 17/23/87 62/104/87 61/103/87 
f 18/24/88 75/125/88 76/126/88 
f 76/126/88 17/25/88 18/24/88 
f 2/2/89 59/101/89 19/26/89 
f 21/28/90 61/103/90 2/3/90 
f 4/6/91 63/105/91 22/29/91 
f 19/31/92 59/107/92 4/6/92 
f 6/8/93 65/109/93 23/32/93 
f 22/29/94 63/105/94 6/8/94 
f 8/10/95 67/111/95 25/33/95 
f 23/35/96 65/113/96 8/10/96 
f 10/12/97 69/115/97 26/36/97 
f 25/33/98 67/111/98 10/12/98 
f 12/14/99 71/117/99 27/38/99 
f 26/36/100 69/115/100 12/15/100 
f 14/18/101 73/119/101 29/39/101 
f 27/41/102 71/121/102 14/18/102 
f 16/20/103 75/123/103 30/42/103 
f 29/39/104 73/119/104 16/21/104 
f 18/24/105 61/103/105 21/28/105 
f 30/43/106 75/125/106 18/24/106 
f 15/83/60 74/127/60 13/84/60 
f 13/84/107 72/128/107 11/85/107 
f 11/85/60 70/129/60 9/86/60 
f 9/86/60 68/130/60 7/87/60 
f 7/87/60 66/131/60 5/88/60 
f 5/88/60 64/132/60 3/89/60 
f 3/89/107 60/133/107 1/90/107 
f 1/90/107 62/134/107 17/91/107 
f 17/91/60 76/135/60 15/83/60 
# 194 faces

