# 3ds Max Wavefront OBJ Exporter v0.97b - (c)2007 guruware
# File Created: 21.04.2015 10:54:28

mtllib wooden defense bend.mtl

#
# object Box004
#

v  62.9776535034 -0.0319409780 -4.0129237175
v  62.9776535034 -0.0319409519 -4.2260804176
v  63.5228385925 -0.0319409519 -4.2260804176
v  63.5228385925 -0.0319409780 -4.0129237175
v  63.3550453186 1.7904613018 -4.0129237175
v  63.3550453186 1.7904613018 -4.2260804176
v  63.1291999817 1.7905254364 -4.2260804176
v  63.1291999817 1.7905255556 -4.0129237175
v  63.7495002747 1.7903045416 -4.0129237175
v  63.7495002747 -0.0319409780 -4.0129237175
v  63.7495002747 -0.0319409519 -4.2260804176
v  63.7495002747 1.7903045416 -4.2260804176
v  62.7495346069 1.7903690338 -4.2260804176
v  62.7495346069 -0.0319409519 -4.2260804176
v  62.7495346069 -0.0319409780 -4.0129237175
v  62.7495346069 1.7903690338 -4.0129237175
v  63.5228385925 1.9683990479 -4.0129237175
v  63.7495002747 1.9683995247 -4.0129237175
v  63.7495002747 1.9683992863 -4.2260804176
v  63.5228385925 1.9683988094 -4.2260804176
v  62.9776535034 1.7905577421 -4.2260804176
v  62.9776535034 1.7905577421 -4.0129237175
v  63.5228385925 1.7904286385 -4.0129237175
v  63.5228385925 1.7904286385 -4.2260804176
v  62.9776535034 1.7903046608 -4.6169967651
v  62.9776535034 -0.0319406651 -4.6169967651
v  62.7495346069 -0.0319406651 -4.6169967651
v  62.7495346069 1.7901804447 -4.6169967651
v  63.5228385925 1.7903047800 -3.6171298027
v  63.5228385925 -0.0319409072 -3.6171302795
v  63.7495002747 -0.0319409072 -3.6171302795
v  63.7495002747 1.7901804447 -3.6171300411
v  63.5228385925 -0.0319406651 -4.6169967651
v  63.5228385925 -0.0319409296 -4.4392371178
v  62.9776535034 -0.0319409296 -4.4392371178
v  63.1293754578 -0.0319406986 -4.6169967651
v  63.3504562378 -0.0319406651 -4.6169967651
v  63.5228385925 -0.0319410041 -3.7997670174
v  62.9776535034 -0.0319409072 -3.6171302795
v  62.9776535034 -0.0319410041 -3.7997672558
v  63.3550453186 1.9670660496 -4.4392371178
v  63.3504562378 1.9670666456 -4.6169967651
v  63.1293754578 1.9670666456 -4.6169967651
v  63.1291999817 1.9670660496 -4.4392371178
v  63.3550453186 1.7904286385 -4.4392371178
v  63.1291999817 1.7904286385 -4.4392371178
v  63.1291999817 1.7905256748 -3.7997670174
v  63.1291999817 1.7905255556 -3.6171298027
v  63.3550453186 1.7904613018 -3.6171298027
v  63.3550453186 1.7904614210 -3.7997670174
v  63.7495002747 1.7903045416 -4.4392371178
v  63.7495002747 -0.0319409296 -4.4392371178
v  63.7495002747 -0.0319404267 -4.6169967651
v  63.7495002747 1.7901804447 -4.6169967651
v  63.7495002747 1.7903047800 -3.7997670174
v  63.7495002747 1.9683995247 -3.7997667789
v  63.7495002747 1.9683995247 -3.6171300411
v  62.7495346069 1.7903690338 -3.7997670174
v  62.7495346069 -0.0319410041 -3.7997672558
v  62.7495346069 -0.0319409072 -3.6171302795
v  62.7495346069 1.7904336452 -3.6171300411
v  62.7495346069 1.7903045416 -4.4392371178
v  62.7495346069 1.9683988094 -4.4392371178
v  62.7495346069 1.9683990479 -4.6169967651
v  63.5228385925 1.9683988094 -4.4392371178
v  63.7495002747 1.9683988094 -4.4392371178
v  63.7495002747 1.9683992863 -4.6169967651
v  63.5228385925 1.9683990479 -4.6169967651
v  63.5228385925 1.7904286385 -4.4392371178
v  63.5228385925 1.9683990479 -3.7997670174
v  63.5228385925 1.9683992863 -3.6171298027
v  63.5228385925 1.7904287577 -3.7997670174
v  62.9777030945 1.9671953917 -3.7998259068
v  62.7495880127 1.9671953917 -3.7998259068
v  62.7495880127 1.9673243761 -3.6171886921
v  62.9777030945 1.9671953917 -3.6171886921
v  62.9776535034 1.7905577421 -3.7997670174
v  62.9776535034 1.9683988094 -4.4392371178
v  62.9776535034 1.9683990479 -4.6169967651
v  62.9776535034 1.7904286385 -4.4392371178
v  63.5228385925 1.7903046608 -4.6169967651
v  62.7495346069 -0.0319409296 -4.4392371178
v  63.7495002747 -0.0319410041 -3.7997670174
v  62.9776535034 1.7903691530 -3.6171300411
v  63.1293754578 1.7903046608 -4.6169967651
v  63.3504562378 1.7903046608 -4.6169967651
# 86 vertices

vn 0.0000000000 -1.0000000000 -0.0000001192
vn 0.0002450005 0.9999999404 -0.0000002232
vn 0.0002083377 1.0000000000 -0.0001105798
vn 0.0002337318 0.9999999404 -0.0002433574
vn 0.0002541805 0.9999999404 -0.0000003438
vn 1.0000000000 0.0000000000 -0.0000000000
vn -1.0000000000 -0.0000000013 0.0000001266
vn -1.0000000000 -0.0000000165 -0.0000000000
vn -1.0000000000 -0.0000000153 0.0000000105
vn -1.0000000000 0.0000000000 0.0000001371
vn -0.0000021735 1.0000000000 -0.0000004291
vn -0.0003144694 0.9999998808 -0.0002938530
vn -0.0007733958 0.9999997020 -0.0002194373
vn -0.0008465904 0.9999996424 0.0000001192
vn -0.0003148759 0.9999999404 0.0000000339
vn -1.0000000000 0.0000000000 -0.0000000000
vn 0.0000000000 0.0000000862 -1.0000000000
vn 0.0000010868 -0.0000000862 1.0000000000
vn 0.0000002717 -0.0000001853 1.0000000000
vn 0.0000005434 -1.0000000000 -0.0000014342
vn 0.0000001522 -1.0000000000 -0.0000009212
vn 0.0000000000 -1.0000000000 -0.0000007767
vn 0.0000000000 -1.0000000000 -0.0000014235
vn 0.0000000000 -1.0000000000 -0.0000014342
vn 0.0000000000 -1.0000000000 0.0000002008
vn 0.0000000000 -1.0000000000 0.0000005207
vn 0.0000000000 1.0000000000 0.0000027491
vn 0.0000267947 0.9999999404 -0.0002996443
vn 0.0000491379 0.9999998808 -0.0004689440
vn 0.0002537742 0.9999999404 0.0000002503
vn -0.0001124381 0.9999999404 0.0002890523
vn 0.0006230947 0.9999998212 0.0000007591
vn 0.0003313461 0.9999999404 0.0000897290
vn 1.0000000000 -0.0000000676 -0.0000002346
vn 1.0000000000 0.0000000021 -0.0000000210
vn 1.0000000000 -0.0000001522 -0.0000003286
vn -1.0000000000 -0.0000000309 -0.0000004590
vn -1.0000000000 0.0000000000 -0.0000001600
vn -1.0000000000 -0.0000000022 -0.0000001809
vn -1.0000000000 -0.0000000330 -0.0000004799
vn -1.0000000000 -0.0000001183 -0.0000001173
vn -1.0000000000 -0.0000001689 -0.0000000000
vn -1.0000000000 -0.0000002548 -0.0000000835
vn -1.0000000000 -0.0000001605 -0.0000001643
vn -0.0000006089 1.0000000000 0.0000020123
vn -0.0000004778 1.0000000000 0.0000021709
vn -0.0000010868 1.0000000000 0.0000014342
vn 0.0002922761 0.9999999404 -0.0000291811
vn 0.0005602289 0.9999998212 0.0000001192
vn 0.0001867430 0.9999999404 -0.0002258340
vn -0.0000015738 1.0000000000 -0.0000004544
vn -0.0000021735 1.0000000000 -0.0000011606
vn -0.0000016865 1.0000000000 -0.0000005870
vn -0.0000010868 1.0000000000 0.0000001192
vn 0.0005602289 0.9999998212 -0.0000004291
vn 0.0003193580 0.9999999404 -0.0000002463
vn 0.0003193579 0.9999999404 0.0002196729
vn 0.0003202536 0.9999998808 -0.0003056646
vn 0.0000000000 0.9999997616 -0.0006852349
vn 0.0002579980 0.9999998808 -0.0003794511
vn 0.0005782515 0.9999998212 0.0000001192
vn -0.0008465903 0.9999996424 0.0000001192
vn -0.0003182190 0.9999999404 0.0001421753
vn 0.0000000000 1.0000000000 0.0000014342
vn -0.0002069160 0.9999998212 -0.0005386181
vn -0.0005566548 0.9999998212 -0.0002932196
vn -1.0000000000 0.0000000000 0.0000003200
vn 1.0000000000 -0.0000000845 -0.0000001644
vn 1.0000000000 0.0000000000 -0.0000002466
vn 0.0000001358 0.0000000499 1.0000000000
vn 0.0000006789 -0.0000006260 1.0000000000
vn 0.0000000679 0.0000004149 -0.9999999404
vn -0.0000000679 -0.0000001192 0.9999999404
vn 0.0000002715 -0.0000005416 1.0000000000
vn 0.0000002717 0.0000006260 -0.9999999404
vn -0.0000002718 -0.0000000499 -1.0000000000
vn 0.0000000000 -0.0000004571 1.0000000000
vn -0.0000002634 -0.0009046442 0.9999995828
vn -0.0000003118 -0.0007109689 0.9999997020
vn 0.0000000000 0.0000007950 -1.0000000000
vn 0.0000000004 0.0000007945 -1.0000000000
vn 0.0000000000 0.9999997616 -0.0006777407
vn -0.0000000002 0.9999997616 -0.0006777403
vn 0.0006098656 0.9999997616 0.0003016210
vn -0.0000000001 0.9999997616 -0.0006777405
vn -0.0010565168 0.9999989271 0.0010028734
vn -0.9987252355 0.0000000026 0.0504756793
vn -0.9986332059 0.0522665530 0.0000001437
vn 0.0000000000 0.0000000511 1.0000000000
vn 0.9973654747 -0.0522001572 -0.0503714941
vn 1.0000000000 0.0000000000 0.0000000822
vn 0.0000000991 0.0003422327 0.9999999404
vn 0.0000001979 0.0003421081 0.9999998808
vn 0.9999998808 -0.0002895725 -0.0000002904
vn 0.9999998808 -0.0002892636 -0.0000000000
vn 0.0000005602 -0.0003427432 -0.9999999404
vn 0.0000000000 -0.0003434500 -0.9999998808
vn -1.0000000000 0.0002894983 -0.0000005794
vn -0.9999998808 0.0002894334 -0.0000005183
vn 0.0000000000 0.0000004569 -1.0000000000
vn -0.0000000002 0.0000004571 -1.0000000000
vn 0.0000002717 -0.0000007945 1.0000000000
vn 0.0000010870 0.0000002187 1.0000000000
vn 1.0000000000 -0.0000001718 -0.0000001671
vn -1.0000000000 0.0000000011 -0.0000000105
vn -1.0000000000 -0.0000000153 -0.0000000105
vn -1.0000000000 0.0000000000 -0.0000001371
vn -0.0000001130 -0.0000001853 0.9999999404
vn -1.0000000000 -0.0000000013 -0.0000001266
vn -0.0000002259 -0.0000001522 0.9999999404
vn 0.0000000000 0.0000000532 -1.0000000000
vn 0.0000000000 -0.0000001522 1.0000000000
vn 0.0000000000 -0.0000001522 0.9999999404
vn -0.0000003474 0.0000000532 -1.0000000000
vn -0.0000003458 0.0000000327 -1.0000000000
vn -0.0004102167 0.9999997616 0.0005166211
vn -0.0000001306 -0.0000003348 1.0000000000
# 117 vertex normals

vt -0.8990184069 0.5852644444 0.0000000000
vt -0.8486590385 0.5852644444 0.0000000000
vt -0.8486590385 0.7074882984 0.0000000000
vt -0.8990184069 0.7074882984 0.0000000000
vt 0.1599075943 0.8467242718 0.0000000000
vt 0.1598398238 0.7778477669 0.0000000000
vt 0.2328163832 0.7777760029 0.0000000000
vt 0.2328841537 0.8466524482 0.0000000000
vt 0.3511729538 0.4369024634 0.0000000000
vt 0.3511729538 0.0188302100 0.0000000000
vt 0.4015323520 0.0188302100 0.0000000000
vt 0.4015323520 0.4369025230 0.0000000000
vt 0.8104240298 0.4369171858 0.0000000000
vt 0.8104240298 0.0188303739 0.0000000000
vt 0.8607834578 0.0188303739 0.0000000000
vt 0.8607833982 0.4369171858 0.0000000000
vt 0.8742375374 0.4778926969 0.0000000000
vt 0.8759515285 0.5395441055 0.0000000000
vt 0.8237712979 0.5395439863 0.0000000000
vt 0.8254857063 0.4778925776 0.0000000000
vt 0.2817856073 0.7777278423 0.0000000000
vt 0.3554962277 0.7776552439 0.0000000000
vt 0.3555639982 0.8465317488 0.0000000000
vt 0.2818533778 0.8466042876 0.0000000000
vt 0.8750413060 0.4370614886 0.0000000000
vt 0.8246819377 0.4370614886 0.0000000000
vt 0.6669268608 0.4369025528 0.0000000000
vt 0.6669269800 0.0188303664 0.0000000000
vt 0.7180680037 0.0188303702 0.0000000000
vt 0.7180680037 0.4368739128 0.0000000000
vt 0.2068499178 0.4369024038 0.0000000000
vt 0.2068499476 0.0188302062 0.0000000000
vt 0.2576646209 0.0188302081 0.0000000000
vt 0.2576646209 0.4368739128 0.0000000000
vt -0.7563029528 0.7074882984 0.0000000000
vt -0.7982996702 0.7074882984 0.0000000000
vt -0.7982996702 0.5852644444 0.0000000000
vt -0.7563029528 0.5852644444 0.0000000000
vt -0.7563029528 0.6107497215 0.0000000000
vt -0.7563029528 0.6613815427 0.0000000000
vt -0.9493778944 0.7074882984 0.0000000000
vt -0.9925267696 0.7074882984 0.0000000000
vt -0.9925267696 0.5852644444 0.0000000000
vt -0.9493778944 0.5852644444 0.0000000000
vt 0.1694199741 0.4774562120 0.0000000000
vt 0.1685623527 0.5178959370 0.0000000000
vt 0.1182677224 0.5178959370 0.0000000000
vt 0.1184145659 0.4774562120 0.0000000000
vt 0.1597720534 0.7089712024 0.0000000000
vt 0.2327486128 0.7088994384 0.0000000000
vt 0.2329518944 0.9155290127 0.0000000000
vt 0.2330099493 0.9745438099 0.0000000000
vt 0.1600333899 0.9746156335 0.0000000000
vt 0.1599753350 0.9156008363 0.0000000000
vt 0.4518917203 0.4369025230 0.0000000000
vt 0.4518917203 0.0188302100 0.0000000000
vt 0.4938884377 0.0188303478 0.0000000000
vt 0.4938883781 0.4368739128 0.0000000000
vt 0.3008135259 0.4369024634 0.0000000000
vt 0.3008134663 0.4777621627 0.0000000000
vt 0.2576645911 0.4777621627 0.0000000000
vt 0.9111428261 0.4369171858 0.0000000000
vt 0.9111429453 0.0188303739 0.0000000000
vt 0.9542918205 0.0188303739 0.0000000000
vt 0.9542918205 0.4369319677 0.0000000000
vt 0.7600646019 0.4369024038 0.0000000000
vt 0.7599436045 0.4777619839 0.0000000000
vt 0.7181891203 0.4777621031 0.0000000000
vt 0.5431558490 0.5202795863 0.0000000000
vt 0.4943260252 0.5202796459 0.0000000000
vt 0.4937437177 0.4777298570 0.0000000000
vt 0.5437380075 0.4777297378 0.0000000000
vt 0.1056214124 0.7779010534 0.0000000000
vt 0.0323810652 0.7779731750 0.0000000000
vt 0.0323133171 0.7090965509 0.0000000000
vt 0.1055536717 0.7090246081 0.0000000000
vt 0.2593849599 0.5263369083 0.0000000000
vt 0.2051296085 0.5263368487 0.0000000000
vt 0.2044826746 0.4777621031 0.0000000000
vt 0.2600318789 0.4777621031 0.0000000000
vt 0.0324488431 0.8468496203 0.0000000000
vt 0.1056891829 0.8467775583 0.0000000000
vt 0.1057569385 0.9156541824 0.0000000000
vt 0.0325165987 0.9157261848 0.0000000000
vt 0.0863972232 0.5260596275 0.0000000000
vt 0.0317935646 0.5260912180 0.0000000000
vt 0.0311143957 0.4775168300 0.0000000000
vt 0.0870202184 0.4774844646 0.0000000000
vt 0.3528105617 0.9154111147 0.0000000000
vt 0.2847423553 0.9154781103 0.0000000000
vt 0.7598226070 0.5310341120 0.0000000000
vt 0.7183103561 0.5310342312 0.0000000000
vt 0.2817178369 0.7088512182 0.0000000000
vt 0.3554284573 0.7087787390 0.0000000000
vt -0.9516955614 0.0575584061 0.0000000000
vt -0.9925266504 0.0575583987 0.0000000000
vt -0.9925267696 0.0155617557 0.0000000000
vt -0.9516670704 0.0155617297 0.0000000000
vt -0.9925267696 0.2086365968 0.0000000000
vt -0.9516955614 0.2086365968 0.0000000000
vt -0.9516670704 0.2517855167 0.0000000000
vt -0.9925267696 0.2517855167 0.0000000000
vt -0.5045155883 0.2097888440 0.0000000000
vt -0.4636845291 0.2097888440 0.0000000000
vt -0.4636560977 0.2517855167 0.0000000000
vt -0.5045156479 0.2517855167 0.0000000000
vt -0.9516954422 0.4542295933 0.0000000000
vt -0.9516670704 0.5050442815 0.0000000000
vt -0.9925266504 0.5050442815 0.0000000000
vt -0.9925266504 0.4542295933 0.0000000000
vt -0.9516670704 0.7873821855 0.0000000000
vt -0.9516954422 0.8381969333 0.0000000000
vt -0.9925266504 0.8381969333 0.0000000000
vt -0.9925267696 0.7873821855 0.0000000000
vt -0.9925267696 0.5050442815 0.0000000000
vt -0.9516955614 0.8381969333 0.0000000000
vt -0.8486590385 0.7583029866 0.0000000000
vt -0.8990184069 0.7583029866 0.0000000000
vt -0.8990184069 0.5341234803 0.0000000000
vt -0.8486590385 0.5341234803 0.0000000000
vt -0.7563029528 0.7583029866 0.0000000000
vt -0.7982996702 0.7583029866 0.0000000000
vt -0.7982996702 0.5341234803 0.0000000000
vt -0.7563029528 0.5341234803 0.0000000000
vt -0.9925267696 0.5341234803 0.0000000000
vt -0.9493778944 0.5341234803 0.0000000000
vt -0.9493778944 0.7583029866 0.0000000000
vt -0.9925267696 0.7583029866 0.0000000000
vt -0.9517029524 0.4166128337 0.0000000000
vt -0.9517177343 0.3659810424 0.0000000000
vt -0.9516818523 0.3320057690 0.0000000000
vt -0.9516670704 0.4542296231 0.0000000000
vt 0.5447031260 0.4369025528 0.0000000000
vt 0.2326353937 0.6514607668 0.0000000000
vt 0.2816613317 0.6514124870 0.0000000000
vt 0.1611990184 0.6515309811 0.0000000000
vt 0.1054971516 0.6515856981 0.0000000000
vt 0.1058149934 0.9746689796 0.0000000000
vt 0.6350742579 0.4369025528 0.0000000000
vt 0.6414418221 0.0188303664 0.0000000000
vt 0.6329517365 0.4774565101 0.0000000000
vt 0.5823198557 0.4774565101 0.0000000000
vt 0.5844423771 0.4369025528 0.0000000000
vt -0.9922208786 0.0575583987 0.0000000000
vt -0.9922209978 0.0155617557 0.0000000000
vt -0.9516955614 0.0575583987 0.0000000000
vt 0.1186013520 0.4369307458 0.0000000000
vt 0.1692331880 0.4369307458 0.0000000000
vt -0.5042099357 0.2517854869 0.0000000000
vt -0.5042098165 0.2097888738 0.0000000000
vt 0.0334851295 0.4369319379 0.0000000000
vt 0.0846260786 0.4369171560 0.0000000000
vt -0.1330998540 0.9429509640 0.0000000000
vt -0.1330998540 0.8998019695 0.0000000000
vt -0.0925311744 0.8997880220 0.0000000000
vt -0.0925743878 0.9429370165 0.0000000000
vt -0.0903480649 0.8579384089 0.0000000000
vt -0.1527739167 0.8579469919 0.0000000000
vt -0.1555876732 0.8084820509 0.0000000000
vt -0.0875194669 0.8084150553 0.0000000000
vt 0.9542778730 0.4775154591 0.0000000000
vt 0.9111289978 0.4774858952 0.0000000000
vt 0.4015323520 0.4777621031 0.0000000000
vt 0.3511729538 0.4777621627 0.0000000000
vt 0.6669268608 0.4777621627 0.0000000000
vt 0.7180680037 0.4777621627 0.0000000000
vt 0.4938883781 0.4777621031 0.0000000000
vt 0.4518917203 0.4777619839 0.0000000000
vt 0.3008135259 0.0188302100 0.0000000000
vt 0.7600646615 0.0188303739 0.0000000000
vt 0.5908099413 0.0188303664 0.0000000000
vt 0.0846261233 0.0188302062 0.0000000000
vt 0.5447032452 0.0188303664 0.0000000000
vt 0.0334851593 0.0188302062 0.0000000000
vt 0.2819792032 0.9744955897 0.0000000000
vt -0.4625190794 0.3320057392 0.0000000000
vt -0.4625190794 0.2808648050 0.0000000000
vt -0.9516670704 0.0575583838 0.0000000000
# 178 texture coords

g Box004
usemtl _wooden_defense_bendwire_086086086
s 1
f 1/1/1 2/2/1 3/3/1 
f 3/3/1 4/4/1 1/1/1 
f 5/5/2 6/6/3 7/7/4 
f 7/7/4 8/8/5 5/5/2 
s 2
f 9/9/6 10/10/6 11/11/6 
f 11/11/6 12/12/6 9/9/6 
f 13/13/7 14/14/8 15/15/9 
f 15/15/9 16/16/10 13/13/7 
s 1
f 17/17/11 18/18/11 19/19/11 
f 19/19/11 20/20/11 17/17/11 
f 21/21/12 13/22/13 16/23/14 
f 16/23/14 22/24/15 21/21/12 
s 2
f 23/25/16 17/17/16 20/20/16 
f 20/20/16 24/26/16 23/25/16 
s 4
f 25/27/17 26/28/17 27/29/17 
f 27/29/17 28/30/17 25/27/17 
f 29/31/18 30/32/19 31/33/18 
f 31/33/18 32/34/18 29/31/18 
s 1
f 33/35/20 34/36/21 35/37/22 
f 35/37/22 26/38/23 36/39/23 
f 35/37/22 36/39/23 37/40/24 
f 33/35/20 35/37/22 37/40/24 
f 2/2/1 35/37/22 34/36/21 
f 34/36/21 3/3/1 2/2/1 
f 38/41/25 30/42/26 39/43/26 
f 39/43/26 40/44/25 38/41/25 
f 4/4/1 38/41/25 40/44/25 
f 40/44/25 1/1/1 4/4/1 
f 41/45/27 42/46/27 43/47/27 
f 43/47/27 44/48/27 41/45/27 
f 6/6/3 45/49/28 46/50/29 
f 46/50/29 7/7/4 6/6/3 
f 47/51/30 48/52/31 49/53/32 
f 49/53/32 50/54/33 47/51/30 
f 8/8/5 47/51/30 50/54/33 
f 50/54/33 5/5/2 8/8/5 
s 2
f 51/55/34 52/56/6 53/57/35 
f 53/57/35 54/58/36 51/55/34 
f 55/59/6 56/60/6 57/61/6 
f 57/61/6 32/34/6 55/59/6 
f 58/62/37 59/63/38 60/64/39 
f 60/64/39 61/65/40 58/62/37 
f 62/66/41 63/67/42 64/68/43 
f 64/68/43 28/30/44 62/66/41 
s 1
f 65/69/45 66/70/27 67/71/46 
f 67/71/46 68/72/47 65/69/45 
f 24/73/48 12/74/49 51/75/49 
f 51/75/49 69/76/50 24/73/48 
f 56/77/51 70/78/52 71/79/53 
f 71/79/53 57/80/54 56/77/51 
f 9/81/55 23/82/56 72/83/57 
f 72/83/57 55/84/55 9/81/55 
f 73/85/58 74/86/59 75/87/60 
f 75/87/60 76/88/61 73/85/58 
f 22/24/15 16/23/14 58/89/62 
f 58/89/62 77/90/63 22/24/15 
f 63/67/64 78/91/64 79/92/64 
f 79/92/64 64/68/64 63/67/64 
f 13/22/13 21/21/12 80/93/65 
f 80/93/65 62/94/66 13/22/13 
s 2
f 69/95/16 65/96/16 68/97/16 
f 68/97/16 81/98/16 69/95/16 
f 70/99/67 72/100/67 29/101/67 
f 29/101/67 71/102/67 70/99/67 
f 78/103/68 80/104/69 25/105/68 
f 25/105/68 79/106/68 78/103/68 
s 4
f 69/107/70 51/108/71 66/109/70 
f 66/109/70 65/110/70 69/107/70 
f 12/111/72 24/112/73 20/113/72 
f 20/113/72 19/114/72 12/111/72 
f 23/107/74 9/108/75 18/115/74 
f 18/115/74 17/110/74 23/107/74 
f 55/111/76 72/116/77 70/113/76 
f 70/113/76 56/114/76 55/111/76 
s 1
f 4/4/1 3/3/1 11/117/1 
f 11/117/1 10/118/1 4/4/1 
f 2/2/1 1/1/1 15/119/1 
f 15/119/1 14/120/1 2/2/1 
f 34/36/21 33/35/20 53/121/24 
f 53/121/24 52/122/78 34/36/21 
f 26/38/24 35/37/22 82/123/22 
f 82/123/22 27/124/24 26/38/24 
f 3/3/1 34/36/21 52/122/78 
f 52/122/78 11/117/1 3/3/1 
f 35/37/22 2/2/1 14/120/1 
f 14/120/1 82/123/22 35/37/22 
f 40/44/25 39/43/26 60/125/26 
f 60/125/26 59/126/25 40/44/25 
f 30/42/26 38/41/25 83/127/25 
f 83/127/25 31/128/26 30/42/26 
f 1/1/1 40/44/25 59/126/25 
f 59/126/25 15/119/1 1/1/1 
f 38/41/25 4/4/1 10/118/1 
f 10/118/1 83/127/25 38/41/25 
s 4
f 49/129/79 48/130/79 84/131/79 
f 84/131/80 29/132/80 49/129/80 
f 67/71/81 54/58/82 81/133/81 
f 81/133/81 68/72/81 67/71/81 
s 1
f 8/8/5 7/7/4 21/21/12 
f 21/21/12 22/24/15 8/8/5 
f 6/6/3 5/5/2 23/82/56 
f 23/82/56 24/73/48 6/6/3 
f 46/50/29 85/134/83 25/135/83 
f 25/135/83 80/93/65 46/50/29 
f 86/136/84 45/49/28 69/76/50 
f 69/76/50 81/137/85 86/136/84 
f 7/7/4 46/50/29 80/93/65 
f 80/93/65 21/21/12 7/7/4 
f 45/49/28 6/6/3 24/73/48 
f 24/73/48 69/76/50 45/49/28 
f 50/54/33 49/53/32 29/138/86 
f 29/138/86 72/83/57 50/54/33 
f 5/5/2 50/54/33 72/83/57 
f 72/83/57 23/82/56 5/5/2 
f 47/51/30 8/8/5 22/24/15 
f 22/24/15 77/90/63 47/51/30 
s 4
f 85/139/17 36/140/17 26/28/17 
f 26/28/17 25/27/17 85/139/17 
f 43/141/87 42/142/87 86/143/87 
f 86/143/87 85/139/87 43/141/87 
s 2
f 44/144/88 43/145/89 85/98/88 
f 85/98/88 46/146/88 44/144/88 
s 4
f 41/45/90 44/48/90 46/147/90 
f 46/147/90 45/148/90 41/45/90 
s 2
f 42/149/91 41/150/92 45/104/91 
f 45/104/91 86/105/91 42/149/91 
s 4
f 76/88/93 75/87/94 61/151/93 
f 61/151/93 84/152/93 76/88/93 
s 2
f 73/153/95 76/154/96 84/155/95 
f 84/155/95 77/156/95 73/153/95 
s 4
f 74/157/97 73/158/98 77/159/97 
f 77/159/97 58/160/97 74/157/97 
s 2
f 75/161/99 74/162/100 58/62/99 
f 58/62/99 61/65/99 75/161/99 
f 9/9/6 12/12/6 19/163/6 
f 19/163/6 18/164/6 9/9/6 
s 4
f 79/165/101 25/27/102 28/30/101 
f 28/30/101 64/166/101 79/165/101 
f 71/79/103 29/31/104 32/34/103 
f 32/34/103 57/80/103 71/79/103 
s 2
f 51/55/34 54/58/36 67/167/105 
f 67/167/105 66/168/6 51/55/34 
f 55/59/6 32/34/6 31/33/6 
f 31/33/6 83/169/6 55/59/6 
f 62/66/41 28/30/44 27/29/106 
f 27/29/106 82/170/16 62/66/41 
f 51/55/6 12/12/6 11/11/6 
f 11/11/6 52/56/6 51/55/6 
f 9/9/6 55/59/6 83/169/6 
f 83/169/6 10/10/6 9/9/6 
f 13/13/107 62/66/108 82/170/109 
f 82/170/109 14/14/8 13/13/107 
f 58/62/16 16/16/16 15/15/16 
f 15/15/16 59/63/16 58/62/16 
s 4
f 85/139/17 86/143/17 37/171/17 
f 37/171/17 36/140/17 85/139/17 
f 29/31/110 84/152/111 39/172/110 
f 39/172/110 30/32/110 29/31/110 
f 81/133/111 54/58/112 53/57/111 
f 53/57/111 33/173/111 81/133/111 
f 84/152/113 61/151/114 60/174/113 
f 60/174/113 39/172/113 84/152/113 
f 86/143/17 81/133/115 33/173/17 
f 33/173/17 37/171/17 86/143/17 
s off
f 77/90/116 84/175/116 48/52/116 
f 48/52/116 47/51/116 77/90/116 
f 80/176/117 78/103/117 63/177/117 
f 63/177/117 62/178/117 80/176/117 
# 168 faces

